<svg width="88" height="128" viewBox="0 0 88 128" fill="none" xmlns="http://www.w3.org/2000/svg">
<path fill-rule="evenodd" clip-rule="evenodd" d="M43.9992 128C45.0664 128 46.0856 127.56 46.853 126.828L86.8174 87.232C88.3962 85.668 88.3922 83.136 86.8174 81.576C85.2427 80.012 82.6847 80.012 81.1099 81.576L48.0361 114.348L48.0361 4C48.0361 1.792 46.2295 0 43.9992 0C41.769 0 39.9624 1.792 39.9624 4L39.9624 114.344L6.88855 81.576C5.3138 80.012 2.75582 80.016 1.18106 81.576C-0.393692 83.14 -0.393692 85.672 1.18106 87.232L41.1455 126.828C41.9009 127.576 42.9401 127.988 43.9992 128Z" fill="#1F2937"/>
</svg>
